<?xml version="1.0" encoding="UTF-8"?><svg id="Layer_1" xmlns="http://www.w3.org/2000/svg" viewBox="0 0 495.81 356.57"><defs><style>.cls-1{fill:#010101;}.cls-2{fill:#fff;}.cls-3{fill:#fbee3f;}</style></defs><path class="cls-2" d="m495.39,230.19c-1.28-27.46-6.6-54.65-12.78-81.7-7.19-31.52-19.56-62.03-30.74-92.77-4.21-11.58-7.97-23.25-11.66-34.94-3.63-11.5-13.75-18.93-29.22-19.9-14.31-.89-27.97,1.74-40.25,7.44-9.18,4.25-13.35,11.49-14.39,19.26-1.48,11.03-2.32,22.16-2.22,33.25.11,11.68,1.65,23.35,2.59,35.3h-81.66c0-5.6.05-11-.01-16.39-.18-15.42.03-30.85-.85-46.25-.35-6.13-2.43-12.36-5.03-18.2-3.05-6.84-9.6-10.63-19.7-11.22-9.11-.54-18.1-2.32-27.11-3.69-13.9-2.11-29.39,4.86-32.91,15.39-13.05,39.09-26.37,78.13-38.64,117.36-8.84,28.28-15.03,57.03-17.13,86.08-1.24,17.19-.07,34.53,1.04,51.77,1.41,22.03,7.33,43.61,12.75,65.22,3.07,12.22,10.49,17.73,26.61,19.78.55.07,1.04.39,1.56.59h281.12c3.34-.97,6.88-1.67,9.99-2.97,8.52-3.56,12.43-9.82,14.14-16.64,4.65-18.51,10-37.01,12.63-55.71,2.38-16.88,2.64-34.05,1.85-51.04l.02-.02Z"/><path class="cls-2" d="m495.44,230.19c-1.28-27.46-6.6-54.65-12.78-81.7-7.19-31.52-19.56-62.03-30.74-92.77-4.21-11.58-7.97-23.25-11.66-34.94-3.63-11.5-13.75-18.93-29.22-19.9-14.31-.89-27.97,1.74-40.25,7.44-9.18,4.25-13.35,11.49-14.39,19.26-1.48,11.03-2.32,22.16-2.22,33.25.11,11.68,1.65,23.35,2.59,35.3h-81.66c0-5.6.05-11-.01-16.39-.18-15.42.03-30.85-.85-46.25-.35-6.13-2.43-12.36-5.03-18.2-3.05-6.84-9.6-10.63-19.7-11.22-9.11-.54-18.1-2.32-27.11-3.69-13.9-2.11-29.39,4.86-32.91,15.39-13.05,39.09-26.37,78.13-38.64,117.36-8.84,28.28-15.03,57.03-17.13,86.08-1.24,17.19-.07,34.53,1.04,51.77,1.41,22.03,7.33,43.61,12.75,65.22,3.07,12.22,16.07,13.02,32.18,15.07.55.07-4.53,5.09-4.02,5.29,93.71,0,185.35-5.61,279.06-5.61,3.34-.97,8.94,3.94,12.05,2.64,8.52-3.56,12.43-9.82,14.14-16.64,4.65-18.51,10-37.01,12.63-55.71,2.38-16.88,2.64-34.05,1.85-51.04h.03Z"/><circle class="cls-3" cx="314.74" cy="227.4" r="77.28"/><path class="cls-1" d="m495.44,230.19c-1.28-27.46-6.6-54.65-12.78-81.7-7.19-31.52-19.56-62.03-30.74-92.77-4.21-11.58-7.97-23.25-11.66-34.94-3.63-11.5-13.75-18.93-29.22-19.9-14.31-.89-27.97,1.74-40.25,7.44-9.18,4.25-13.35,11.49-14.39,19.26-1.48,11.03-2.32,22.16-2.22,33.25.11,11.68,1.65,23.35,2.59,35.3h-81.66c0-5.6.05-11-.01-16.39-.18-15.42.03-30.85-.85-46.25-.35-6.13-2.43-12.36-5.03-18.2-3.05-6.84-9.6-10.63-19.7-11.22-9.11-.54-18.1-2.32-27.11-3.69-13.9-2.11-29.39,4.86-32.91,15.39-13.05,39.09-26.37,78.13-38.64,117.36-1.49,4.78-2.88,9.57-4.21,14.37h16.97c7.52-28.41,17.05-56.52,26.87-84.59,4.93-14.07,9.52-28.21,14.21-42.33,1.86-5.59,8.01-8.72,15.31-7.72,7.09.97,14.2,1.89,21.15,2.82-3.89,18.23-7.78,35.91-11.41,53.62-1.76,8.58-3.3,17.19-4.46,25.83-1.23,9.24,3.95,13.41,16.03,13.47,48.05.22,96.11.43,144.16.63,12.7.05,18.04-4.91,16.59-14.52-1.87-12.43-2.79-24.95-4.85-37.36-2.31-13.89-5.44-27.7-8.29-41.93,8.22-.97,16.92-3.92,26.17-.81,4.43,1.49,7.39,3.76,8.67,7.46,7.95,22.91,15.85,45.84,24.06,68.7,8.5,23.66,16.51,47.4,21.26,71.69,5.94,30.38,11.7,60.78,11.23,91.63-.3,19.45-12.87,66.4-14.45,72.88-.57,2.36-1.69,4.69-2.98,6.89-2.48,4.21-6.85,6.22-12.96,6.21-88.72-.05-177.43-.03-266.15-.11-15.44-.01-18.36-1.82-20.95-13.5-1.86-8.4-3.74-12.8-5.55-21.21h-17.31c2.27,10.34,4.95,20.64,7.54,30.95,3.07,12.22,10.68,19.04,28.17,20.37.55.04-.52-.2,0,0h278.75c1.53,0,3.05-.2,4.52-.59,2.67-.71,5.38-1.36,7.83-2.38,8.52-3.56,12.43-9.82,14.14-16.64,4.65-18.51,10-37,12.63-55.71,2.38-16.88,2.64-34.05,1.85-51.04l.04-.02Zm-238.24-134.4c-1.41.13-2.28.27-3.14.27-3.9.02-7.8,0-12.97,0,4.5-22.75,8.91-45.07,13.33-67.38.55.03,1.11.07,1.66.1,3.72,22.24,1.11,44.56,1.12,67h0Zm117.26.71c-2.37-23.29-5.6-46.35-.34-69.51,6.69,22.85,9.46,46.04,11.53,69.51h-11.2.01Z"/><rect x="328.75" y="155.23" width="4.69" height="111.62" transform="translate(-52.25 295.93) rotate(-45)"/><rect x="295.63" y="188.36" width="4.69" height="111.62" transform="translate(-85.38 282.21) rotate(-45)"/><rect x="312.19" y="161.04" width="4.69" height="133.12" transform="translate(-68.81 289.07) rotate(-45)"/><rect x="345.31" y="149.68" width="4.69" height="89.58" transform="translate(-35.68 302.79) rotate(-45)"/><rect x="279.06" y="215.94" width="4.69" height="89.58" transform="translate(-101.94 275.35) rotate(-45)"/><rect x="242.16" y="208.66" width="111.62" height="4.69" transform="translate(-61.93 272.5) rotate(-45)"/><rect x="275.28" y="241.79" width="111.62" height="4.69" transform="translate(-75.66 305.62) rotate(-45)"/><rect x="247.98" y="225.23" width="133.12" height="4.69" transform="translate(-68.79 289.07) rotate(-45)"/><rect x="236.61" y="192.11" width="89.58" height="4.69" transform="translate(-55.08 255.94) rotate(-45)"/><rect x="302.86" y="258.35" width="89.58" height="4.69" transform="translate(-82.52 322.18) rotate(-45)"/><path class="cls-1" d="m314.53,312.61c-46.87,0-85.01-38.13-85.01-85.01s38.13-85.01,85.01-85.01,85.01,38.13,85.01,85.01-38.13,85.01-85.01,85.01Zm0-154.57c-38.36,0-69.56,31.2-69.56,69.56s31.2,69.56,69.56,69.56,69.56-31.2,69.56-69.56-31.2-69.56-69.56-69.56Z"/><rect x="33.03" y="168.8" width="155.55" height="11.09"/><rect y="221.14" width="155.55" height="11.09"/><rect x="63.19" y="273.48" width="155.55" height="11.09"/></svg>